<?xml version="1.0" encoding="utf-8"?>
<!-- Generator: Adobe Illustrator 21.1.0, SVG Export Plug-In . SVG Version: 6.00 Build 0)  -->
<svg version="1.1" xmlns="http://www.w3.org/2000/svg" xmlns:xlink="http://www.w3.org/1999/xlink" x="0px" y="0px"
	 viewBox="0 0 150 150" style="enable-background:new 0 0 150 150;" xml:space="preserve">
<style type="text/css">
	.st0{fill-rule:evenodd;clip-rule:evenodd;fill:#C3D941;}
</style>
<g id="Layer_1">
</g>
<g id="Layer_2">
	<g>
		<path class="st0" d="M75.5,80.5c-5.5-1.9-11.4-5.9-17.6-11.9c-6.7-3.7-9.3-10.6-7.9-20.6l6.9-31.2l0.4,0l-3.1,0.3
			c-0.1,0.1-0.2,0.3-0.5,0.4L31.2,38.7c-0.2-0.2-0.4-0.3-0.6-0.3l20.6-25.2c0.1,0.1,0.3,0.2,0.4,0.3l-0.4-0.6
			c1.3-6.9,4.2-9.9,8.7-9.1l4.4,1.5L67,9.6l0.1,1.3V11c-0.1,1.6-0.7,3.9-1.8,7.1l-4.4,11.5c-3,9.7-1.3,15.5,5.2,17.5
			c10.4-2.8,18.7-2.3,25,1.6c11.8,5.3,20.8,15.7,26.9,31.2c-0.9-0.7-1.8-1.3-2.8-1.8c1.5,2.2,2.9,4.6,4.2,7c-2.4-1.8-5.4-3.3-9-4.6
			l0.7,1.2c0.2,0.3,0.3,0.5,0.5,0.8l2.2,3.9l-2.3-3.9l0.4,0.7l-0.8-1.3l1.4,2.4l-1.3-2.1c0,0,0,0.1,0,0.1c0,0.1,0.1,0.2,0.1,0.3
			l3.9,6.2c1.4,5.9,2,9,1.8,9.5c-0.1,0.5-1-1.8-2.7-6.8c0.2,3-1,3.3-3.5,0.7l-6.3-6c-0.3-0.2-0.6-0.5-1-0.7l0.2,0.1
			c-0.1-0.2-0.3-0.3-0.5-0.4c0,0,0.1,0,0.1,0c-0.3-0.2-0.7-0.5-1.3-1h0.1c-0.1-0.1-0.2-0.2-0.4-0.3v0c-1.4-0.3-2.5-0.4-3.5-0.3
			c-1.9-0.1-3.7-0.2-5.4-0.3l1.6,4.9h-0.3l7,10c1.2,1,1.6,2,1.2,3c-0.2,1.2-0.9,1.6-2,1.2c-3.8,5.4-8.3,13.3-13.3,23.6l2.6,6.7
			c0.8,1.8,2.3,3.3,4.6,4.5l-4.6-1.2l-2.3-3.6l-0.4,2.9l0.7,0.1h-0.7l-0.2,1.2l3.2,1.8c-2.9-0.8-4.4-1.5-4.6-2.1v-0.8
			c-0.3,0-0.5,0-0.8,0l-0.1,0.5c-0.2-0.1-0.4-0.3-0.5-0.4c-2.2,0.2-3.8,0.7-5,1.3c3.5,4.8,4.9,8,4.4,9.4l-5.8-8.2l-4.6,2.4
			c-1.7,1-2.9,2.4-3.5,4c-0.6-1,1.3-3.3,5.5-7l-4.1-0.3c-1.5-0.2-3,0.1-4.3,0.9c0.4-0.6,3.6-1.8,9.6-3.6l4.6-29.4
			c-0.8-2-0.9-3.6-0.3-4.9l-1.1-11.8l0,0.3h-0.4l-2.4-7.8L75.5,80.5z M87.8,68.9L87.8,68.9l0.1,0C87.9,68.9,87.9,68.9,87.8,68.9z
			 M89,67.5C89,67.5,89,67.5,89,67.5L89,67.5L89,67.5z M105.2,64.5l0.2,0.2L105.2,64.5L105.2,64.5L105.2,64.5z M108.6,69.6
			c-0.1,0-0.1-0.1-0.2-0.1c0,0-0.1,0-0.1,0C108.4,69.5,108.5,69.6,108.6,69.6z M107.5,67.7L107.5,67.7L107.5,67.7L107.5,67.7z
			 M105.7,77.1l-0.6-0.2l1.2,0.4l-2.8-1L105.7,77.1z M106.8,75.7l-1-0.4l1.8,0.7L106.8,75.7L106.8,75.7z M111,77.7l1.2,0.4l-4.1-1.6
			l0.4,0.2l-1.5-0.6l2.8,1.1l-1.4-0.5l3.2,1.2L111,77.7z M97.7,97.8l-6.8-10.5l-5.2-4.6c-1.3-0.2-2.4-0.3-3.3-0.5
			c0.1,2.4-0.1,4.6-0.6,6.5h-0.2l1.4,11.9c0.7,0.7,1.3,1.4,1.7,1.8l-1.7,2.4l-4.1,24.6l-0.3,4.8l4.7,0.6c-0.4-0.6-0.6-1.3-0.6-2.1
			l0.6-4.5L98,101.8L97.7,97.8z M84.5,135l0.7,0.1v-4.5L84.5,135z"/>
	</g>
</g>
</svg>
