<?xml version="1.0" encoding="utf-8"?>
<!-- Generator: Adobe Illustrator 21.1.0, SVG Export Plug-In . SVG Version: 6.00 Build 0)  -->
<svg version="1.1" id="Layer_1" xmlns="http://www.w3.org/2000/svg" xmlns:xlink="http://www.w3.org/1999/xlink" x="0px" y="0px"
	 viewBox="0 0 150 150" style="enable-background:new 0 0 150 150;" xml:space="preserve">
<style type="text/css">
	.st0{fill-rule:evenodd;clip-rule:evenodd;fill:#5D2881;}
</style>
<path class="st0" d="M76.8,98.8c0.9-2.1,5.5-8.9,5-10.9c1.3-1.3,2.2-2.6,2.6-4c0.1,0.1,0.1,0.1,0.1,0.1c1.3,1.8,2.8,5.3,3.7,5.6
	c0.9,1.4,4.2,0.6,6.4,0.9c2.1,0.3,5,5.9,4.7,3.8c-0.3-2.1-3.2-4.9-4-5.3c0,0-4.5-1.9-6-1.3c0,0-1.8-4.7-3-5.6c0,0-0.8,0-1.5,0.3
	c0.3-1.5,0.2-3.2,0-5.2c0.3-0.4,0.6-0.8,0.8-1.2c0.2,0.1,0.3,0.3,0.6,0.4c2.3,1.4,5.7,4.6,6.7,4.5c1.6,1.1,4.9-1.4,7.5-2.1
	c2.5-0.6,8.3,4.2,7,2c-1.2-2.2-5.8-4-6.9-4c0,0-5.8-0.1-7.2,1.4c0,0-4.2-4.4-6-4.8c0,0-0.4,0.2-0.8,0.4c0.7-2.8-1.3-4.2-2.5-8
	c0.2,0.1,0.5,0.2,0.8,0.2c2.7,0.3,7.1,1.6,8,1.1c2,0.2,3.8-3.5,5.8-5.2c2-1.7,9.3,0,7.2-1.3c-2.1-1.4-7-1-8-0.6c0,0-5.2,2.6-5.8,4.5
	c0,0-5.7-2-7.5-1.6c0,0-0.7,0.8-0.9,1.6c-0.7-3-0.8-5.5-0.9-7.3c0.2,0.1,0.5,0.1,0.9,0c2.7-0.6,7.2-0.6,7.9-1.4c2-0.3,2.6-4.5,4-6.6
	c1.4-2.2,8.9-2.8,6.5-3.5c-2.4-0.7-7,1.2-7.7,1.8c0,0-4.2,4.1-4.2,6c0,0-6.1-0.2-7.6,0.8c0,0-0.1,0.2-0.2,0.6
	c-0.1-0.3-0.3-0.5-0.5-0.7c1.1-1.2-0.3-4.7-1.6-5c-1.2-0.3-2.6-3.8-2.5-4.8c0,0,8.2,2,11.4,1.6c3.2-0.4,9.3-7.7,12-13.7
	c13.4-15.8-6-29.1-8.1-28.2c5.2,1.4,9.4,11.3,6.3,17.9C101,17.1,94.3,8.8,91.9,8c0,0,6.1,6.1,3.4,12.5c-2.7,6.4,0.3,9.5,3.3,11.6
	c0,0-7,5.4-8.4,6.7c0,0-13.8-1.3-15.7,3c-1.8-4.3-15.6-3-15.6-3c-1.3-1.3-8.4-6.7-8.4-6.7c3-2.1,6-5.2,3.3-11.6
	C51.3,14.1,57.4,8,57.4,8c-2.5,0.8-9.1,9.1-7.4,14.2C47,15.5,51,5.7,56.3,4.3c-2.1-0.9-21.6,12.4-8.1,28.2c2.7,5.9,8.8,13.3,12,13.7
	c3.2,0.4,11.5-1.6,11.5-1.6c0,1-1.3,4.5-2.6,4.8c-1.3,0.3-2.7,3.8-1.6,5c-1.6-0.9-7.5-0.7-7.5-0.7c0-2-4.2-6-4.2-6
	c-0.8-0.7-5.3-2.6-7.7-1.8c-2.5,0.7,5.1,1.2,6.5,3.5c1.4,2.2,2,6.3,4,6.6c0.7,0.8,5.2,0.9,7.9,1.4c0.1,0,0.2,0.1,0.2,0.1
	c-0.2,1.6-0.3,3.7-0.7,6.2c-0.2-0.3-0.4-0.5-0.4-0.5c-1.8-0.4-7.5,1.6-7.5,1.6c-0.6-1.9-5.8-4.5-5.8-4.5c-0.9-0.4-5.8-0.8-8,0.6
	C42,62,49.4,60.3,51.3,62c2,1.7,3.8,5.4,5.8,5.2c0.9,0.6,5.3-0.8,8-1.1l0,0c-1.1,3.5-2.8,4.9-2.5,7.4c-1.8,0.4-6,4.8-6,4.8
	c-1.4-1.4-7.2-1.4-7.2-1.4c-1.1,0-5.6,1.8-6.9,4c-1.3,2.2,4.5-2.6,7-2c2.6,0.6,5.8,3.2,7.5,2.1c1.1,0.1,4.4-3.1,6.7-4.5l0.1-0.1
	c0.2,0.3,0.3,0.6,0.6,0.8c-0.2,1.9-0.3,3.5-0.1,5c-0.4-0.1-0.7-0.1-0.7-0.1c-1.2,0.9-3,5.6-3,5.6c-1.5-0.6-6,1.3-6,1.3
	c-0.8,0.4-3.7,3.2-4,5.3c-0.2,2.1,2.6-3.5,4.7-3.8c2.1-0.3,5.5,0.5,6.4-0.9c0.8-0.2,2.1-3.1,3.2-5c0.5,1.1,1.3,2.2,2.4,3.3
	c-0.4,1.8,3,7.2,4.5,10c0.2,1.1,0.7,3.6,0.8,6c0.1,3.3,0.2,7.5,2.5,8.9c-2.6,2.1-1.6,11.6-0.8,13.4c-5.7,0.4-9.6,7.6-9.6,10.9
	c-2.2-0.9-10.3,0.8-10.8,2.6c0,0-1.5-3-3.3-3.3c0.4-1.4,6-4.1,7.8-4.4c-6.1-3.7-11.2-0.1-12.6,1.1c-1.4,1.1,0.3,4-0.9,4.9
	c-1.3,5.5,7.9,8.9,9.8,7.5c1.2-1.6,10.9-4,13.9-6.4c3.2-0.4,7.7-9.1,9.1-11.4c3.8-1.2,2.6-13.4,0.9-15.8
	C80.3,110,79.1,102.9,76.8,98.8L76.8,98.8z"/>
</svg>
